<svg width="35" height="35" viewBox="0 0 35 35" fill="none" xmlns="http://www.w3.org/2000/svg">
<rect width="35" height="35" fill="#6D9E77"/>
<path d="M17.0898 32.3546C14.7971 32.3546 12.788 32.0827 11.0625 31.5391C9.33706 30.9718 7.78888 30.2864 6.41797 29.4827L8.01342 24.2C9.4316 25.0273 10.8498 25.7127 12.268 26.2564C13.7098 26.7764 15.3525 27.0364 17.1962 27.0364C18.5907 27.0364 19.5952 26.7764 20.2098 26.2564C20.8243 25.7364 21.1316 25.0391 21.1316 24.1646C21.1316 23.0773 20.7416 22.3327 19.9616 21.9309C19.1816 21.5291 17.8343 21.1155 15.9198 20.69C12.6816 19.9573 10.4007 18.9527 9.07706 17.6764C7.77706 16.4 7.12706 14.5564 7.12706 12.1455C7.12706 9.66365 7.97797 7.57183 9.67979 5.87001C11.3816 4.14456 13.9934 3.28183 17.5152 3.28183C19.2171 3.28183 20.9307 3.5891 22.6562 4.20365C24.4052 4.79456 25.788 5.38547 26.8043 5.97637L25.5634 11.0109C24.1452 10.3018 22.798 9.73456 21.5216 9.3091C20.2689 8.88365 18.9452 8.67092 17.5507 8.67092C16.3925 8.67092 15.5416 8.89547 14.998 9.34456C14.4543 9.79365 14.1825 10.4555 14.1825 11.33C14.1825 12.2046 14.5134 12.9018 15.1752 13.4218C15.8371 13.9418 17.2552 14.4264 19.4298 14.8755C22.668 15.5609 24.9371 16.5655 26.2371 17.8891C27.5607 19.2127 28.2225 21.1627 28.2225 23.7391C28.2225 26.4809 27.2416 28.6082 25.2798 30.1209C23.318 31.61 20.588 32.3546 17.0898 32.3546Z" fill="#1E1E1E"/>
</svg>
