<svg width="375" height="199" viewBox="0 0 375 199" fill="none" xmlns="http://www.w3.org/2000/svg">
<g clip-path="url(#clip0_2778_7427)">
<path d="M127 108.5C127 75.0868 154.087 48 187.5 48V48C220.913 48 248 75.0868 248 108.5V183H127V108.5Z" fill="white"/>
<path d="M219.126 138.395H156.581C154.358 121.562 148.255 96.045 158.001 78.056C169.67 56.5168 211.267 55.2172 220.991 78.056C225.31 88.1982 220.991 126.042 219.126 138.395Z" fill="black"/>
<path d="M228.628 184.106H149.759C152.68 174.512 156.071 162.147 166.539 161.301H212.686C221.748 161.301 227.09 176.504 228.628 184.106Z" fill="black"/>
<path d="M215.799 158.825C209.623 163.576 171.614 162.151 164.962 160.251C154.413 157.237 156.886 96.2087 156.886 88.5084C156.886 79.9563 170.597 71.4043 187.768 71.4043C207.248 71.4043 219.126 80.4314 219.126 88.5084C219.126 96.5854 220.741 155.024 215.799 158.825Z" fill="white" stroke="black" stroke-width="2" stroke-linecap="round" stroke-linejoin="round"/>
<path d="M167.337 85.1826C164.296 85.9428 161.319 82.9654 160.21 81.3817L168.21 70.8794H207.323L215.323 81.3817C206.581 85.1826 195.527 81.0649 191.092 78.531C191.251 79.9563 190.237 83.2821 184.916 85.1826C179.595 87.083 172.88 82.1735 170.187 79.4812C170.504 81.0649 170.377 84.4224 167.337 85.1826Z" fill="black"/>
<path d="M171 143.542C173.959 140.028 181.06 133 189.74 133C198.419 133 205.356 140.181 207 144" stroke="black" stroke-width="2" stroke-linecap="round" stroke-linejoin="round"/>
<path d="M187 138H191" stroke="black" stroke-width="2" stroke-linecap="round" stroke-linejoin="round"/>
<path d="M157.835 106.701H218.65" stroke="black" stroke-width="4.4702" stroke-linecap="square" stroke-linejoin="round"/>
<circle cx="206.774" cy="106.088" r="8.55206" fill="white" stroke="black" stroke-width="2" stroke-linecap="round" stroke-linejoin="round"/>
<ellipse cx="207.5" cy="110" rx="1.5" ry="2" fill="black"/>
<path d="M204.496 91.4587C206.238 91.6171 210.483 92.504 213.523 94.7845" stroke="black" stroke-width="3" stroke-linecap="round" stroke-linejoin="round"/>
<circle cx="170.664" cy="106.088" r="8.55206" fill="white" stroke="black" stroke-width="2" stroke-linecap="round" stroke-linejoin="round"/>
<ellipse cx="170.5" cy="110" rx="1.5" ry="2" fill="black"/>
<path d="M163.536 95.2097C164.961 93.7844 168.762 91.1238 172.563 91.8839" stroke="black" stroke-width="3" stroke-linecap="round" stroke-linejoin="round"/>
<path d="M183.017 116.54C181.908 117.332 179.596 120.341 181.117 122.242C182.637 124.142 183.967 123.667 184.442 123.192C184.442 124.3 185.487 126.518 189.668 126.518C193.849 126.518 195.37 124.3 194.419 123.192C195.845 123.192 197.745 122.812 197.745 121.291C197.745 118.441 195.37 117.332 194.419 116.54" stroke="black" stroke-width="2" stroke-linecap="round" stroke-linejoin="round"/>
<path d="M226.852 109.974C224.524 107.785 221.678 109.791 220.547 111.068L220.547 120.918C227.822 123.653 229.762 112.71 226.852 109.974Z" fill="white" stroke="black" stroke-width="2" stroke-linecap="round" stroke-linejoin="round"/>
<path d="M220.521 115.311C221.221 114.788 222.801 113.899 223.521 114.526" stroke="black" stroke-width="2" stroke-linecap="round" stroke-linejoin="round"/>
<path d="M149.156 109.974C151.484 107.785 154.33 109.791 155.461 111.068V120.918C148.186 123.653 146.246 112.71 149.156 109.974Z" fill="white" stroke="black" stroke-width="2" stroke-linecap="round" stroke-linejoin="round"/>
<path d="M156.411 115.652C155.524 115.155 153.523 114.31 152.61 114.906" stroke="black" stroke-width="2" stroke-linecap="round" stroke-linejoin="round"/>
</g>
<path d="M247 108.5V182H128V108.5C128 75.6391 154.639 49 187.5 49C220.361 49 247 75.6391 247 108.5Z" stroke="black" stroke-width="2"/>
<path d="M259.037 103.5H340.963C342.364 103.5 343.5 104.636 343.5 106.037V179.963C343.5 181.364 342.364 182.5 340.963 182.5H259.037C257.636 182.5 256.5 181.364 256.5 179.963V106.037C256.5 104.636 257.636 103.5 259.037 103.5Z" fill="white" stroke="#5B5B5B"/>
<path d="M256.917 124.852H343.542" stroke="#5B5B5B"/>
<path d="M279.406 108.818H280.878L284.338 117.27H284.457L287.917 108.818H289.389V119H288.236V111.264H288.136L284.954 119H283.841L280.659 111.264H280.559V119H279.406V108.818ZM294.804 119.159C294.115 119.159 293.51 118.995 292.99 118.667C292.473 118.339 292.068 117.88 291.777 117.29C291.488 116.7 291.344 116.01 291.344 115.222C291.344 114.426 291.488 113.732 291.777 113.138C292.068 112.545 292.473 112.085 292.99 111.756C293.51 111.428 294.115 111.264 294.804 111.264C295.494 111.264 296.097 111.428 296.614 111.756C297.134 112.085 297.539 112.545 297.827 113.138C298.119 113.732 298.265 114.426 298.265 115.222C298.265 116.01 298.119 116.7 297.827 117.29C297.539 117.88 297.134 118.339 296.614 118.667C296.097 118.995 295.494 119.159 294.804 119.159ZM294.804 118.105C295.328 118.105 295.759 117.971 296.097 117.702C296.435 117.434 296.685 117.081 296.848 116.643C297.01 116.206 297.091 115.732 297.091 115.222C297.091 114.711 297.01 114.236 296.848 113.795C296.685 113.354 296.435 112.998 296.097 112.726C295.759 112.454 295.328 112.318 294.804 112.318C294.281 112.318 293.85 112.454 293.512 112.726C293.174 112.998 292.923 113.354 292.761 113.795C292.599 114.236 292.517 114.711 292.517 115.222C292.517 115.732 292.599 116.206 292.761 116.643C292.923 117.081 293.174 117.434 293.512 117.702C293.85 117.971 294.281 118.105 294.804 118.105ZM306.026 111.364L303.203 119H302.009L299.185 111.364H300.458L302.566 117.449H302.646L304.754 111.364H306.026ZM310.503 119.159C309.768 119.159 309.133 118.997 308.599 118.672C308.069 118.344 307.66 117.886 307.371 117.3C307.086 116.71 306.944 116.024 306.944 115.241C306.944 114.459 307.086 113.77 307.371 113.173C307.66 112.573 308.061 112.106 308.574 111.771C309.091 111.433 309.695 111.264 310.384 111.264C310.782 111.264 311.174 111.33 311.562 111.463C311.95 111.596 312.303 111.811 312.621 112.109C312.939 112.404 313.193 112.795 313.382 113.283C313.571 113.77 313.665 114.37 313.665 115.082V115.58H307.779V114.565H312.472C312.472 114.134 312.386 113.75 312.214 113.412C312.045 113.074 311.803 112.807 311.488 112.612C311.176 112.416 310.808 112.318 310.384 112.318C309.917 112.318 309.512 112.434 309.171 112.666C308.833 112.895 308.573 113.193 308.39 113.561C308.208 113.929 308.117 114.323 308.117 114.744V115.42C308.117 115.997 308.216 116.486 308.415 116.887C308.617 117.285 308.898 117.588 309.255 117.797C309.613 118.002 310.029 118.105 310.503 118.105C310.812 118.105 311.09 118.062 311.339 117.976C311.59 117.886 311.808 117.754 311.99 117.578C312.172 117.399 312.313 117.177 312.412 116.912L313.546 117.23C313.427 117.615 313.226 117.953 312.944 118.244C312.663 118.533 312.315 118.758 311.9 118.92C311.486 119.08 311.02 119.159 310.503 119.159ZM320.859 113.074L319.805 113.372C319.739 113.196 319.641 113.026 319.512 112.86C319.386 112.691 319.214 112.552 318.995 112.442C318.776 112.333 318.496 112.278 318.155 112.278C317.687 112.278 317.298 112.386 316.986 112.602C316.678 112.814 316.524 113.084 316.524 113.412C316.524 113.704 316.63 113.934 316.842 114.103C317.054 114.272 317.386 114.413 317.836 114.526L318.97 114.804C319.653 114.97 320.161 115.223 320.496 115.565C320.831 115.903 320.998 116.339 320.998 116.872C320.998 117.31 320.872 117.701 320.621 118.045C320.372 118.39 320.024 118.662 319.576 118.861C319.129 119.06 318.609 119.159 318.015 119.159C317.237 119.159 316.592 118.99 316.081 118.652C315.571 118.314 315.248 117.82 315.112 117.17L316.226 116.892C316.332 117.303 316.532 117.611 316.827 117.817C317.125 118.022 317.515 118.125 317.996 118.125C318.542 118.125 318.977 118.009 319.298 117.777C319.623 117.542 319.785 117.26 319.785 116.932C319.785 116.667 319.692 116.445 319.507 116.266C319.321 116.083 319.036 115.947 318.652 115.858L317.379 115.56C316.68 115.394 316.166 115.137 315.838 114.789C315.513 114.438 315.351 113.999 315.351 113.472C315.351 113.041 315.472 112.66 315.714 112.328C315.959 111.997 316.292 111.737 316.713 111.548C317.137 111.359 317.618 111.264 318.155 111.264C318.91 111.264 319.504 111.43 319.934 111.761C320.369 112.093 320.677 112.53 320.859 113.074Z" fill="black"/>
<path d="M283.486 164.318C281.925 164.318 280.547 164.042 279.35 163.489C278.16 162.928 277.232 162.159 276.565 161.182C275.899 160.197 275.569 159.076 275.577 157.818C275.569 156.833 275.762 155.924 276.156 155.091C276.55 154.25 277.088 153.549 277.77 152.989C278.459 152.42 279.228 152.061 280.077 151.909V151.773C278.963 151.485 278.077 150.86 277.418 149.898C276.759 148.928 276.433 147.826 276.44 146.591C276.433 145.409 276.732 144.352 277.338 143.42C277.944 142.489 278.778 141.754 279.838 141.216C280.906 140.678 282.122 140.409 283.486 140.409C284.834 140.409 286.039 140.678 287.1 141.216C288.16 141.754 288.994 142.489 289.6 143.42C290.213 144.352 290.524 145.409 290.531 146.591C290.524 147.826 290.187 148.928 289.52 149.898C288.861 150.86 287.986 151.485 286.895 151.773V151.909C287.736 152.061 288.494 152.42 289.168 152.989C289.842 153.549 290.38 154.25 290.781 155.091C291.183 155.924 291.387 156.833 291.395 157.818C291.387 159.076 291.047 160.197 290.372 161.182C289.706 162.159 288.778 162.928 287.588 163.489C286.406 164.042 285.039 164.318 283.486 164.318ZM283.486 161.818C284.539 161.818 285.448 161.648 286.213 161.307C286.978 160.966 287.569 160.485 287.986 159.864C288.403 159.242 288.615 158.515 288.622 157.682C288.615 156.803 288.387 156.027 287.94 155.352C287.494 154.678 286.884 154.148 286.111 153.761C285.346 153.375 284.471 153.182 283.486 153.182C282.494 153.182 281.607 153.375 280.827 153.761C280.054 154.148 279.444 154.678 278.997 155.352C278.558 156.027 278.342 156.803 278.35 157.682C278.342 158.515 278.543 159.242 278.952 159.864C279.369 160.485 279.963 160.966 280.736 161.307C281.509 161.648 282.425 161.818 283.486 161.818ZM283.486 150.773C284.319 150.773 285.058 150.606 285.702 150.273C286.353 149.939 286.865 149.473 287.236 148.875C287.607 148.277 287.797 147.576 287.804 146.773C287.797 145.985 287.611 145.299 287.247 144.716C286.884 144.125 286.38 143.67 285.736 143.352C285.092 143.027 284.342 142.864 283.486 142.864C282.615 142.864 281.853 143.027 281.202 143.352C280.55 143.67 280.047 144.125 279.69 144.716C279.334 145.299 279.16 145.985 279.168 146.773C279.16 147.576 279.338 148.277 279.702 148.875C280.073 149.473 280.584 149.939 281.236 150.273C281.887 150.606 282.637 150.773 283.486 150.773ZM300.005 164.318C298.444 164.318 297.065 164.042 295.868 163.489C294.679 162.928 293.751 162.159 293.084 161.182C292.418 160.197 292.088 159.076 292.096 157.818C292.088 156.833 292.281 155.924 292.675 155.091C293.069 154.25 293.607 153.549 294.289 152.989C294.978 152.42 295.747 152.061 296.596 151.909V151.773C295.482 151.485 294.596 150.86 293.937 149.898C293.277 148.928 292.952 147.826 292.959 146.591C292.952 145.409 293.251 144.352 293.857 143.42C294.463 142.489 295.296 141.754 296.357 141.216C297.425 140.678 298.641 140.409 300.005 140.409C301.353 140.409 302.558 140.678 303.618 141.216C304.679 141.754 305.512 142.489 306.118 143.42C306.732 144.352 307.043 145.409 307.05 146.591C307.043 147.826 306.705 148.928 306.039 149.898C305.38 150.86 304.505 151.485 303.414 151.773V151.909C304.255 152.061 305.012 152.42 305.687 152.989C306.361 153.549 306.899 154.25 307.3 155.091C307.702 155.924 307.906 156.833 307.914 157.818C307.906 159.076 307.565 160.197 306.891 161.182C306.224 162.159 305.296 162.928 304.107 163.489C302.925 164.042 301.558 164.318 300.005 164.318ZM300.005 161.818C301.058 161.818 301.967 161.648 302.732 161.307C303.497 160.966 304.088 160.485 304.505 159.864C304.921 159.242 305.133 158.515 305.141 157.682C305.133 156.803 304.906 156.027 304.459 155.352C304.012 154.678 303.402 154.148 302.63 153.761C301.865 153.375 300.99 153.182 300.005 153.182C299.012 153.182 298.126 153.375 297.346 153.761C296.573 154.148 295.963 154.678 295.516 155.352C295.077 156.027 294.861 156.803 294.868 157.682C294.861 158.515 295.062 159.242 295.471 159.864C295.887 160.485 296.482 160.966 297.255 161.307C298.027 161.648 298.944 161.818 300.005 161.818ZM300.005 150.773C300.838 150.773 301.577 150.606 302.221 150.273C302.872 149.939 303.383 149.473 303.755 148.875C304.126 148.277 304.315 147.576 304.323 146.773C304.315 145.985 304.13 145.299 303.766 144.716C303.402 144.125 302.899 143.67 302.255 143.352C301.611 143.027 300.861 142.864 300.005 142.864C299.133 142.864 298.372 143.027 297.721 143.352C297.069 143.67 296.565 144.125 296.209 144.716C295.853 145.299 295.679 145.985 295.687 146.773C295.679 147.576 295.857 148.277 296.221 148.875C296.592 149.473 297.103 149.939 297.755 150.273C298.406 150.606 299.156 150.773 300.005 150.773ZM316.523 164.318C314.963 164.318 313.584 164.042 312.387 163.489C311.198 162.928 310.27 162.159 309.603 161.182C308.936 160.197 308.607 159.076 308.614 157.818C308.607 156.833 308.8 155.924 309.194 155.091C309.588 154.25 310.126 153.549 310.808 152.989C311.497 152.42 312.266 152.061 313.114 151.909V151.773C312.001 151.485 311.114 150.86 310.455 149.898C309.796 148.928 309.47 147.826 309.478 146.591C309.47 145.409 309.77 144.352 310.376 143.42C310.982 142.489 311.815 141.754 312.876 141.216C313.944 140.678 315.16 140.409 316.523 140.409C317.872 140.409 319.076 140.678 320.137 141.216C321.198 141.754 322.031 142.489 322.637 143.42C323.251 144.352 323.561 145.409 323.569 146.591C323.561 147.826 323.224 148.928 322.558 149.898C321.898 150.86 321.023 151.485 319.933 151.773V151.909C320.773 152.061 321.531 152.42 322.205 152.989C322.88 153.549 323.417 154.25 323.819 155.091C324.22 155.924 324.425 156.833 324.433 157.818C324.425 159.076 324.084 160.197 323.41 161.182C322.743 162.159 321.815 162.928 320.626 163.489C319.444 164.042 318.076 164.318 316.523 164.318ZM316.523 161.818C317.576 161.818 318.486 161.648 319.251 161.307C320.016 160.966 320.607 160.485 321.023 159.864C321.44 159.242 321.652 158.515 321.66 157.682C321.652 156.803 321.425 156.027 320.978 155.352C320.531 154.678 319.921 154.148 319.148 153.761C318.383 153.375 317.508 153.182 316.523 153.182C315.531 153.182 314.645 153.375 313.864 153.761C313.092 154.148 312.482 154.678 312.035 155.352C311.595 156.027 311.38 156.803 311.387 157.682C311.38 158.515 311.58 159.242 311.989 159.864C312.406 160.485 313.001 160.966 313.773 161.307C314.546 161.648 315.463 161.818 316.523 161.818ZM316.523 150.773C317.357 150.773 318.095 150.606 318.739 150.273C319.391 149.939 319.902 149.473 320.273 148.875C320.645 148.277 320.834 147.576 320.842 146.773C320.834 145.985 320.648 145.299 320.285 144.716C319.921 144.125 319.417 143.67 318.773 143.352C318.13 143.027 317.38 142.864 316.523 142.864C315.652 142.864 314.891 143.027 314.239 143.352C313.588 143.67 313.084 144.125 312.728 144.716C312.372 145.299 312.198 145.985 312.205 146.773C312.198 147.576 312.376 148.277 312.739 148.875C313.111 149.473 313.622 149.939 314.273 150.273C314.925 150.606 315.675 150.773 316.523 150.773Z" fill="#4783FF"/>
<path d="M34.037 103.5H115.963C117.364 103.5 118.5 104.636 118.5 106.037V179.963C118.5 181.364 117.364 182.5 115.963 182.5H34.037C32.6359 182.5 31.5 181.364 31.5 179.963V106.037C31.5 104.636 32.6359 103.5 34.037 103.5Z" fill="white" stroke="#5B5B5B"/>
<path d="M31.916 124.852H118.541" stroke="#5B5B5B"/>
<path d="M46.7507 108.818H48.2223L51.6826 117.27H51.8019L55.2621 108.818H56.7337V119H55.5803V111.264H55.4809L52.299 119H51.1854L48.0036 111.264H47.9042V119H46.7507V108.818ZM59.0467 119V111.364H60.22V119H59.0467ZM59.6433 110.091C59.4146 110.091 59.2174 110.013 59.0517 109.857C58.8893 109.701 58.8081 109.514 58.8081 109.295C58.8081 109.077 58.8893 108.889 59.0517 108.734C59.2174 108.578 59.4146 108.5 59.6433 108.5C59.872 108.5 60.0676 108.578 60.23 108.734C60.3957 108.889 60.4786 109.077 60.4786 109.295C60.4786 109.514 60.3957 109.701 60.23 109.857C60.0676 110.013 59.872 110.091 59.6433 110.091ZM67.7781 113.074L66.7241 113.372C66.6578 113.196 66.5601 113.026 66.4308 112.86C66.3048 112.691 66.1325 112.552 65.9137 112.442C65.695 112.333 65.4149 112.278 65.0735 112.278C64.6062 112.278 64.2168 112.386 63.9052 112.602C63.597 112.814 63.4429 113.084 63.4429 113.412C63.4429 113.704 63.5489 113.934 63.761 114.103C63.9732 114.272 64.3046 114.413 64.7554 114.526L65.8889 114.804C66.5717 114.97 67.0804 115.223 67.4152 115.565C67.7499 115.903 67.9173 116.339 67.9173 116.872C67.9173 117.31 67.7913 117.701 67.5395 118.045C67.2909 118.39 66.9429 118.662 66.4954 118.861C66.048 119.06 65.5276 119.159 64.9343 119.159C64.1555 119.159 63.5108 118.99 63.0004 118.652C62.49 118.314 62.1668 117.82 62.0309 117.17L63.1446 116.892C63.2506 117.303 63.4511 117.611 63.7461 117.817C64.0444 118.022 64.4339 118.125 64.9145 118.125C65.4613 118.125 65.8955 118.009 66.217 117.777C66.5418 117.542 66.7042 117.26 66.7042 116.932C66.7042 116.667 66.6114 116.445 66.4258 116.266C66.2402 116.083 65.9552 115.947 65.5707 115.858L64.298 115.56C63.5986 115.394 63.0849 115.137 62.7568 114.789C62.432 114.438 62.2696 113.999 62.2696 113.472C62.2696 113.041 62.3905 112.66 62.6325 112.328C62.8778 111.997 63.2109 111.737 63.6318 111.548C64.056 111.359 64.5366 111.264 65.0735 111.264C65.8292 111.264 66.4225 111.43 66.8534 111.761C67.2876 112.093 67.5958 112.53 67.7781 113.074ZM73.0045 111.364V112.358H69.0471V111.364H73.0045ZM70.2005 109.534H71.3738V116.812C71.3738 117.144 71.4219 117.393 71.518 117.558C71.6174 117.721 71.7433 117.83 71.8958 117.886C72.0516 117.939 72.2156 117.966 72.388 117.966C72.5173 117.966 72.6233 117.959 72.7062 117.946C72.789 117.929 72.8553 117.916 72.905 117.906L73.1437 118.96C73.0641 118.99 72.9531 119.02 72.8106 119.05C72.6681 119.083 72.4874 119.099 72.2687 119.099C71.9372 119.099 71.6124 119.028 71.2942 118.886C70.9794 118.743 70.7175 118.526 70.5087 118.234C70.3032 117.943 70.2005 117.575 70.2005 117.131V109.534ZM77.0165 119.179C76.5326 119.179 76.0935 119.088 75.6991 118.906C75.3047 118.72 74.9915 118.453 74.7594 118.105C74.5274 117.754 74.4114 117.33 74.4114 116.832C74.4114 116.395 74.4976 116.04 74.67 115.768C74.8423 115.493 75.0727 115.278 75.361 115.122C75.6494 114.966 75.9675 114.85 76.3156 114.774C76.6669 114.695 77.0199 114.632 77.3745 114.585C77.8385 114.526 78.2147 114.481 78.5031 114.451C78.7947 114.418 79.0068 114.363 79.1394 114.287C79.2753 114.211 79.3433 114.078 79.3433 113.889V113.849C79.3433 113.359 79.209 112.978 78.9406 112.706C78.6754 112.434 78.2727 112.298 77.7325 112.298C77.1723 112.298 76.7332 112.421 76.415 112.666C76.0968 112.911 75.8731 113.173 75.7438 113.452L74.6302 113.054C74.829 112.59 75.0942 112.229 75.4256 111.97C75.7604 111.708 76.125 111.526 76.5194 111.423C76.9171 111.317 77.3082 111.264 77.6927 111.264C77.938 111.264 78.2197 111.294 78.5379 111.354C78.8594 111.41 79.1692 111.528 79.4675 111.707C79.7692 111.886 80.0194 112.156 80.2183 112.517C80.4171 112.878 80.5165 113.362 80.5165 113.969V119H79.3433V117.966H79.2836C79.204 118.132 79.0715 118.309 78.8859 118.498C78.7003 118.687 78.4533 118.848 78.1451 118.98C77.8369 119.113 77.4607 119.179 77.0165 119.179ZM77.1955 118.125C77.6595 118.125 78.0506 118.034 78.3688 117.852C78.6903 117.669 78.9323 117.434 79.0947 117.146C79.2604 116.857 79.3433 116.554 79.3433 116.236V115.162C79.2935 115.222 79.1842 115.276 79.0151 115.326C78.8494 115.372 78.6572 115.414 78.4384 115.45C78.223 115.483 78.0125 115.513 77.807 115.54C77.6049 115.563 77.4408 115.583 77.3148 115.599C77.0099 115.639 76.7249 115.704 76.4597 115.793C76.1979 115.879 75.9858 116.01 75.8234 116.186C75.6643 116.358 75.5847 116.594 75.5847 116.892C75.5847 117.3 75.7355 117.608 76.0371 117.817C76.3421 118.022 76.7282 118.125 77.1955 118.125ZM83.7518 116.216L83.7319 114.764H83.9706L87.3115 111.364H88.7632L85.2035 114.963H85.1041L83.7518 116.216ZM82.6581 119V108.818H83.8314V119H82.6581ZM87.5103 119L84.5274 115.222L85.3626 114.406L89.0018 119H87.5103ZM93.1605 119.159C92.4248 119.159 91.79 118.997 91.2564 118.672C90.7261 118.344 90.3168 117.886 90.0284 117.3C89.7434 116.71 89.6009 116.024 89.6009 115.241C89.6009 114.459 89.7434 113.77 90.0284 113.173C90.3168 112.573 90.7178 112.106 91.2316 111.771C91.7486 111.433 92.3518 111.264 93.0412 111.264C93.439 111.264 93.8317 111.33 94.2195 111.463C94.6073 111.596 94.9603 111.811 95.2784 112.109C95.5966 112.404 95.8502 112.795 96.0391 113.283C96.228 113.77 96.3225 114.37 96.3225 115.082V115.58H90.4361V114.565H95.1293C95.1293 114.134 95.0431 113.75 94.8708 113.412C94.7017 113.074 94.4598 112.807 94.1449 112.612C93.8334 112.416 93.4655 112.318 93.0412 112.318C92.5739 112.318 92.1695 112.434 91.8282 112.666C91.4901 112.895 91.2299 113.193 91.0476 113.561C90.8653 113.929 90.7742 114.323 90.7742 114.744V115.42C90.7742 115.997 90.8736 116.486 91.0725 116.887C91.2747 117.285 91.5547 117.588 91.9127 117.797C92.2706 118.002 92.6866 118.105 93.1605 118.105C93.4688 118.105 93.7472 118.062 93.9958 117.976C94.2477 117.886 94.4648 117.754 94.6471 117.578C94.8293 117.399 94.9702 117.177 95.0696 116.912L96.2032 117.23C96.0838 117.615 95.8833 117.953 95.6016 118.244C95.3199 118.533 94.9719 118.758 94.5576 118.92C94.1433 119.08 93.6776 119.159 93.1605 119.159ZM103.516 113.074L102.462 113.372C102.396 113.196 102.298 113.026 102.169 112.86C102.043 112.691 101.871 112.552 101.652 112.442C101.433 112.333 101.153 112.278 100.812 112.278C100.344 112.278 99.9551 112.386 99.6435 112.602C99.3353 112.814 99.1811 113.084 99.1811 113.412C99.1811 113.704 99.2872 113.934 99.4993 114.103C99.7114 114.272 100.043 114.413 100.494 114.526L101.627 114.804C102.31 114.97 102.819 115.223 103.153 115.565C103.488 115.903 103.656 116.339 103.656 116.872C103.656 117.31 103.53 117.701 103.278 118.045C103.029 118.39 102.681 118.662 102.234 118.861C101.786 119.06 101.266 119.159 100.673 119.159C99.8937 119.159 99.2491 118.99 98.7387 118.652C98.2283 118.314 97.9051 117.82 97.7692 117.17L98.8828 116.892C98.9889 117.303 99.1894 117.611 99.4844 117.817C99.7827 118.022 100.172 118.125 100.653 118.125C101.2 118.125 101.634 118.009 101.955 117.777C102.28 117.542 102.443 117.26 102.443 116.932C102.443 116.667 102.35 116.445 102.164 116.266C101.978 116.083 101.693 115.947 101.309 115.858L100.036 115.56C99.3369 115.394 98.8232 115.137 98.4951 114.789C98.1703 114.438 98.0078 113.999 98.0078 113.472C98.0078 113.041 98.1288 112.66 98.3708 112.328C98.616 111.997 98.9491 111.737 99.3701 111.548C99.7943 111.359 100.275 111.264 100.812 111.264C101.568 111.264 102.161 111.43 102.592 111.761C103.026 112.093 103.334 112.53 103.516 113.074Z" fill="black"/>
<path d="M67.3564 164.318C65.7958 164.318 64.417 164.042 63.2201 163.489C62.0307 162.928 61.1026 162.159 60.436 161.182C59.7693 160.197 59.4398 159.076 59.4473 157.818C59.4398 156.833 59.6329 155.924 60.0269 155.091C60.4208 154.25 60.9587 153.549 61.6405 152.989C62.3299 152.42 63.0989 152.061 63.9473 151.909V151.773C62.8337 151.485 61.9473 150.86 61.2882 149.898C60.6292 148.928 60.3034 147.826 60.311 146.591C60.3034 145.409 60.6026 144.352 61.2087 143.42C61.8148 142.489 62.6481 141.754 63.7087 141.216C64.7769 140.678 65.9928 140.409 67.3564 140.409C68.7049 140.409 69.9095 140.678 70.9701 141.216C72.0307 141.754 72.864 142.489 73.4701 143.42C74.0837 144.352 74.3943 145.409 74.4019 146.591C74.3943 147.826 74.0572 148.928 73.3905 149.898C72.7314 150.86 71.8564 151.485 70.7655 151.773V151.909C71.6064 152.061 72.364 152.42 73.0382 152.989C73.7125 153.549 74.2504 154.25 74.6519 155.091C75.0534 155.924 75.2579 156.833 75.2655 157.818C75.2579 159.076 74.917 160.197 74.2428 161.182C73.5761 162.159 72.6481 162.928 71.4587 163.489C70.2769 164.042 68.9095 164.318 67.3564 164.318ZM67.3564 161.818C68.4095 161.818 69.3185 161.648 70.0837 161.307C70.8489 160.966 71.4398 160.485 71.8564 159.864C72.2731 159.242 72.4852 158.515 72.4928 157.682C72.4852 156.803 72.2579 156.027 71.811 155.352C71.364 154.678 70.7542 154.148 69.9814 153.761C69.2163 153.375 68.3413 153.182 67.3564 153.182C66.364 153.182 65.4776 153.375 64.6973 153.761C63.9246 154.148 63.3148 154.678 62.8678 155.352C62.4284 156.027 62.2125 156.803 62.2201 157.682C62.2125 158.515 62.4132 159.242 62.8223 159.864C63.239 160.485 63.8337 160.966 64.6064 161.307C65.3792 161.648 66.2958 161.818 67.3564 161.818ZM67.3564 150.773C68.1898 150.773 68.9284 150.606 69.5723 150.273C70.2239 149.939 70.7352 149.473 71.1064 148.875C71.4776 148.277 71.667 147.576 71.6746 146.773C71.667 145.985 71.4814 145.299 71.1178 144.716C70.7542 144.125 70.2504 143.67 69.6064 143.352C68.9625 143.027 68.2125 142.864 67.3564 142.864C66.4852 142.864 65.7239 143.027 65.0723 143.352C64.4208 143.67 63.917 144.125 63.561 144.716C63.2049 145.299 63.0307 145.985 63.0382 146.773C63.0307 147.576 63.2087 148.277 63.5723 148.875C63.9435 149.473 64.4549 149.939 65.1064 150.273C65.7579 150.606 66.5079 150.773 67.3564 150.773ZM83.8752 164.318C82.3146 164.318 80.9358 164.042 79.7388 163.489C78.5494 162.928 77.6214 162.159 76.9547 161.182C76.2881 160.197 75.9585 159.076 75.9661 157.818C75.9585 156.833 76.1517 155.924 76.5456 155.091C76.9396 154.25 77.4775 153.549 78.1593 152.989C78.8487 152.42 79.6176 152.061 80.4661 151.909V151.773C79.3525 151.485 78.4661 150.86 77.807 149.898C77.1479 148.928 76.8221 147.826 76.8297 146.591C76.8221 145.409 77.1214 144.352 77.7275 143.42C78.3335 142.489 79.1668 141.754 80.2275 141.216C81.2956 140.678 82.5115 140.409 83.8752 140.409C85.2237 140.409 86.4282 140.678 87.4888 141.216C88.5494 141.754 89.3828 142.489 89.9888 143.42C90.6025 144.352 90.9131 145.409 90.9206 146.591C90.9131 147.826 90.5759 148.928 89.9093 149.898C89.2502 150.86 88.3752 151.485 87.2843 151.773V151.909C88.1252 152.061 88.8828 152.42 89.557 152.989C90.2312 153.549 90.7691 154.25 91.1706 155.091C91.5721 155.924 91.7767 156.833 91.7843 157.818C91.7767 159.076 91.4358 160.197 90.7615 161.182C90.0949 162.159 89.1668 162.928 87.9775 163.489C86.7956 164.042 85.4282 164.318 83.8752 164.318ZM83.8752 161.818C84.9282 161.818 85.8373 161.648 86.6025 161.307C87.3676 160.966 87.9585 160.485 88.3752 159.864C88.7918 159.242 89.004 158.515 89.0115 157.682C89.004 156.803 88.7767 156.027 88.3297 155.352C87.8828 154.678 87.2729 154.148 86.5002 153.761C85.735 153.375 84.86 153.182 83.8752 153.182C82.8828 153.182 81.9964 153.375 81.2161 153.761C80.4434 154.148 79.8335 154.678 79.3865 155.352C78.9471 156.027 78.7312 156.803 78.7388 157.682C78.7312 158.515 78.932 159.242 79.3411 159.864C79.7578 160.485 80.3525 160.966 81.1252 161.307C81.8979 161.648 82.8146 161.818 83.8752 161.818ZM83.8752 150.773C84.7085 150.773 85.4471 150.606 86.0911 150.273C86.7426 149.939 87.254 149.473 87.6252 148.875C87.9964 148.277 88.1858 147.576 88.1934 146.773C88.1858 145.985 88.0002 145.299 87.6365 144.716C87.2729 144.125 86.7691 143.67 86.1252 143.352C85.4812 143.027 84.7312 142.864 83.8752 142.864C83.004 142.864 82.2426 143.027 81.5911 143.352C80.9396 143.67 80.4358 144.125 80.0797 144.716C79.7237 145.299 79.5494 145.985 79.557 146.773C79.5494 147.576 79.7275 148.277 80.0911 148.875C80.4623 149.473 80.9737 149.939 81.6252 150.273C82.2767 150.606 83.0267 150.773 83.8752 150.773Z" fill="#E26B5F"/>
<defs>
<clipPath id="clip0_2778_7427">
<path d="M127 108.5C127 75.0868 154.087 48 187.5 48V48C220.913 48 248 75.0868 248 108.5V183H127V108.5Z" fill="white"/>
</clipPath>
</defs>
</svg>
