<svg width="24" height="24" viewBox="0 0 24 24" fill="none" xmlns="http://www.w3.org/2000/svg">
<circle cx="12" cy="12" r="12" fill="#FFDD57"/>
<circle cx="12" cy="12" r="9" fill="#D4600B"/>
<circle cx="12" cy="12" r="9.5" stroke="#FFF28D" stroke-opacity="0.5"/>
<path d="M17.7555 13.1053C17.7555 14.0264 17.5332 14.7569 17.0885 15.2968C16.6439 15.8368 16.0801 16.2219 15.3972 16.4521C14.7144 16.6824 14.0077 16.7975 13.2772 16.7975C12.4911 16.7975 11.7368 16.73 11.0142 16.595C10.2917 16.4521 9.74381 16.3171 9.37062 16.1901V12.8552H10.7522C10.776 13.0696 10.8157 13.3832 10.8713 13.7961C10.9269 14.209 10.9745 14.5663 11.0142 14.8681C11.0381 14.9157 11.1691 14.9911 11.4073 15.0944C11.6534 15.1896 11.9313 15.2809 12.241 15.3683C12.5586 15.4556 12.8326 15.4993 13.0628 15.4993C13.5631 15.4993 13.9482 15.4199 14.2181 15.2611C14.4881 15.0944 14.6747 14.8998 14.7779 14.6775C14.8891 14.4552 14.9446 14.2606 14.9446 14.0939C14.9446 13.6889 14.762 13.3435 14.3968 13.0577C14.0315 12.7718 13.4241 12.4344 12.5745 12.0453C11.574 11.5848 10.8118 11.1242 10.2877 10.6637C9.76366 10.1952 9.50164 9.59973 9.50164 8.87717C9.50164 7.86082 9.91453 7.05092 10.7403 6.44747C11.574 5.84401 12.6301 5.54228 13.9085 5.54228C14.4563 5.54228 15.036 5.58992 15.6474 5.68521C16.2667 5.77255 16.8503 5.92341 17.3982 6.1378V9.17493H16.0404L15.8022 7.4122C15.4925 7.04695 14.9208 6.86433 14.0871 6.86433C13.5789 6.86433 13.178 6.97152 12.8842 7.18591C12.5904 7.39235 12.4435 7.69011 12.4435 8.07918C12.4435 8.51589 12.6658 8.88908 13.1105 9.19875C13.5631 9.50842 14.0792 9.81411 14.6588 10.1158C15.5322 10.5605 16.2667 11.0012 16.8622 11.4379C17.4577 11.8667 17.7555 12.4225 17.7555 13.1053Z" fill="#E58F1F"/>
<path d="M16.5934 13.1053C16.5934 14.0264 16.371 14.7569 15.9264 15.2968C15.4817 15.8368 14.918 16.2219 14.2351 16.4521C13.5523 16.6824 12.8456 16.7975 12.1151 16.7975C11.329 16.7975 10.5747 16.73 9.85214 16.595C9.12958 16.4521 8.5817 16.3171 8.20852 16.1901V12.8552H9.59011C9.61393 13.0696 9.65363 13.3832 9.70921 13.7961C9.7648 14.209 9.81244 14.5663 9.85214 14.8681C9.87596 14.9157 10.007 14.9911 10.2452 15.0944C10.4913 15.1896 10.7692 15.2809 11.0789 15.3683C11.3965 15.4556 11.6704 15.4993 11.9007 15.4993C12.4009 15.4993 12.786 15.4199 13.056 15.2611C13.326 15.0944 13.5126 14.8998 13.6158 14.6775C13.727 14.4552 13.7825 14.2606 13.7825 14.0939C13.7825 13.6889 13.5999 13.3435 13.2347 13.0577C12.8694 12.7718 12.262 12.4344 11.4124 12.0453C10.4119 11.5848 9.64966 11.1242 9.12561 10.6637C8.60156 10.1952 8.33953 9.59973 8.33953 8.87717C8.33953 7.86082 8.75242 7.05092 9.5782 6.44747C10.4119 5.84401 11.468 5.54228 12.7463 5.54228C13.2942 5.54228 13.8739 5.58992 14.4852 5.68521C15.1046 5.77255 15.6882 5.92341 16.2361 6.1378V9.17493H14.8783L14.6401 7.4122C14.3304 7.04695 13.7587 6.86433 12.925 6.86433C12.4168 6.86433 12.0158 6.97152 11.7221 7.18591C11.4283 7.39235 11.2814 7.69011 11.2814 8.07918C11.2814 8.51589 11.5037 8.88908 11.9484 9.19875C12.4009 9.50842 12.9171 9.81411 13.4967 10.1158C14.3701 10.5605 15.1046 11.0012 15.7001 11.4379C16.2956 11.8667 16.5934 12.4225 16.5934 13.1053Z" fill="#E58F1F"/>
<path d="M15.2043 13.1053C15.2043 14.0264 14.982 14.7569 14.5374 15.2968C14.0927 15.8368 13.529 16.2219 12.8461 16.4521C12.1632 16.6824 11.4566 16.7975 10.7261 16.7975C9.93998 16.7975 9.18566 16.73 8.4631 16.595C7.74055 16.4521 7.19267 16.3171 6.81948 16.1901V12.8552H8.20108C8.2249 13.0696 8.2646 13.3832 8.32018 13.7961C8.37576 14.209 8.4234 14.5663 8.4631 14.8681C8.48692 14.9157 8.61794 14.9911 8.85614 15.0944C9.10229 15.1896 9.3802 15.2809 9.68987 15.3683C10.0075 15.4556 10.2814 15.4993 10.5117 15.4993C11.0119 15.4993 11.397 15.4199 11.667 15.2611C11.9369 15.0944 12.1235 14.8998 12.2268 14.6775C12.3379 14.4552 12.3935 14.2606 12.3935 14.0939C12.3935 13.6889 12.2109 13.3435 11.8456 13.0577C11.4804 12.7718 10.873 12.4344 10.0234 12.0453C9.02289 11.5848 8.26063 11.1242 7.73658 10.6637C7.21252 10.1952 6.9505 9.59973 6.9505 8.87717C6.9505 7.86082 7.36339 7.05092 8.18917 6.44747C9.02289 5.84401 10.0789 5.54228 11.3573 5.54228C11.9052 5.54228 12.4848 5.58992 13.0962 5.68521C13.7156 5.77255 14.2992 5.92341 14.847 6.1378V9.17493H13.4893L13.251 7.4122C12.9414 7.04695 12.3697 6.86433 11.536 6.86433C11.0278 6.86433 10.6268 6.97152 10.333 7.18591C10.0392 7.39235 9.89234 7.69011 9.89234 8.07918C9.89234 8.51589 10.1147 8.88908 10.5593 9.19875C11.0119 9.50842 11.528 9.81411 12.1077 10.1158C12.9811 10.5605 13.7156 11.0012 14.3111 11.4379C14.9066 11.8667 15.2043 12.4225 15.2043 13.1053Z" fill="#FFEF6E"/>
</svg>
